<?xml version="1.0" standalone="no"?>
<!DOCTYPE svg PUBLIC "-//W3C//DTD SVG 20010904//EN"
 "http://www.w3.org/TR/2001/REC-SVG-20010904/DTD/svg10.dtd">
<svg version="1.0" xmlns="http://www.w3.org/2000/svg"
 width="512.000000pt" height="512.000000pt" viewBox="0 0 512.000000 512.000000"
 preserveAspectRatio="xMidYMid meet">
<metadata>
Created by potrace 1.11, written by Peter Selinger 2001-2013
</metadata>
<g transform="translate(0.000000,512.000000) scale(0.100000,-0.100000)"
fill="#000000" stroke="none">
<path d="M1964 2988 l1 -2133 420 -1 c231 -1 577 -2 768 -3 l348 -1 -1 -272
c-1 -150 -1 -342 0 -425 l0 -153 340 0 340 0 1 128 c0 70 1 300 1 512 l1 385
-86 0 -87 0 0 263 c0 202 3 262 13 263 38 4 58 8 113 23 351 92 638 332 788
657 36 78 83 226 92 289 20 144 22 199 10 344 -15 176 -109 418 -223 571 -222
298 -542 468 -918 489 l-40 2 -2 299 c-1 165 -2 338 -3 385 l0 85 -510 0
c-280 0 -510 2 -511 5 -1 3 -2 97 -3 210 l-1 205 -426 3 -427 2 2 -2132z"/>
<path d="M790 4224 c0 -8 -89 -403 -100 -444 -5 -19 -12 -53 -16 -75 -3 -22
-8 -43 -10 -46 -2 -3 -6 -20 -9 -37 -3 -18 -21 -101 -41 -184 -19 -84 -73
-322 -119 -528 -46 -206 -91 -404 -99 -440 -8 -36 -17 -76 -20 -90 -3 -14 -17
-77 -32 -140 -14 -63 -27 -122 -29 -130 -2 -8 -10 -45 -19 -81 -8 -37 -17 -78
-20 -90 -6 -28 -9 -41 -30 -130 -8 -37 -17 -78 -20 -90 -3 -13 -7 -33 -10 -44
-3 -11 -32 -139 -65 -284 -33 -146 -63 -271 -65 -278 -3 -7 -1 -15 3 -18 5 -2
168 -41 362 -85 195 -45 390 -89 434 -100 140 -32 195 -43 199 -39 4 4 111
475 122 533 2 15 12 58 20 95 9 36 18 74 20 85 2 10 19 89 39 176 41 179 44
195 51 230 3 14 9 39 14 55 5 17 11 41 14 55 7 43 106 483 116 520 5 19 21 89
36 155 14 66 57 257 95 425 141 617 179 784 179 796 0 9 -90 35 -205 58 -11 2
-99 22 -195 45 -603 139 -600 138 -600 125z"/>
</g>
</svg>
